<mxfile host="app.diagrams.net" modified="2024-03-15T16:16:09.798Z" agent="Mozilla/5.0 (Windows NT 10.0; Win64; x64) AppleWebKit/537.36 (KHTML, like Gecko) Chrome/122.0.0.0 Safari/537.36" etag="yk3TOQkMix7ZTOH_A2CH" version="24.0.7" type="github">
  <diagram name="Сторінка-1" id="RXRrDl7Q5rvN-Dof50DO">
    <mxGraphModel dx="1434" dy="900" grid="1" gridSize="10" guides="1" tooltips="1" connect="1" arrows="1" fold="1" page="1" pageScale="1" pageWidth="827" pageHeight="1169" math="0" shadow="0">
      <root>
        <mxCell id="0" />
        <mxCell id="1" parent="0" />
        <mxCell id="tWON3njtcF4MVr_s7ScI-1" value="Користувач" style="shape=umlActor;verticalLabelPosition=bottom;verticalAlign=top;html=1;outlineConnect=0;" parent="1" vertex="1">
          <mxGeometry x="20" y="460" width="30" height="60" as="geometry" />
        </mxCell>
        <mxCell id="0mhwXIUL83zmYDleuYPz-1" value="" style="endArrow=classic;html=1;rounded=0;" edge="1" parent="1" source="tWON3njtcF4MVr_s7ScI-1" target="0mhwXIUL83zmYDleuYPz-2">
          <mxGeometry width="50" height="50" relative="1" as="geometry">
            <mxPoint x="390" y="490" as="sourcePoint" />
            <mxPoint x="210" y="490" as="targetPoint" />
          </mxGeometry>
        </mxCell>
        <mxCell id="0mhwXIUL83zmYDleuYPz-2" value="Афіша" style="ellipse;whiteSpace=wrap;html=1;" vertex="1" parent="1">
          <mxGeometry x="160" y="450" width="120" height="80" as="geometry" />
        </mxCell>
        <mxCell id="0mhwXIUL83zmYDleuYPz-7" value="" style="endArrow=none;dashed=1;html=1;rounded=0;entryX=0;entryY=0.625;entryDx=0;entryDy=0;entryPerimeter=0;" edge="1" parent="1" source="0mhwXIUL83zmYDleuYPz-2" target="0mhwXIUL83zmYDleuYPz-9">
          <mxGeometry width="50" height="50" relative="1" as="geometry">
            <mxPoint x="90" y="260" as="sourcePoint" />
            <mxPoint x="310" y="90" as="targetPoint" />
          </mxGeometry>
        </mxCell>
        <mxCell id="0mhwXIUL83zmYDleuYPz-8" value="" style="endArrow=none;dashed=1;html=1;rounded=0;entryX=0.033;entryY=0.213;entryDx=0;entryDy=0;entryPerimeter=0;exitX=1;exitY=1;exitDx=0;exitDy=0;" edge="1" parent="1" source="0mhwXIUL83zmYDleuYPz-2" target="0mhwXIUL83zmYDleuYPz-10">
          <mxGeometry width="50" height="50" relative="1" as="geometry">
            <mxPoint x="150" y="810" as="sourcePoint" />
            <mxPoint x="320" y="630" as="targetPoint" />
          </mxGeometry>
        </mxCell>
        <mxCell id="0mhwXIUL83zmYDleuYPz-9" value="Інформація про фільм&amp;nbsp;" style="ellipse;whiteSpace=wrap;html=1;" vertex="1" parent="1">
          <mxGeometry x="354" y="370" width="120" height="80" as="geometry" />
        </mxCell>
        <mxCell id="0mhwXIUL83zmYDleuYPz-10" value="Купівля квитків" style="ellipse;whiteSpace=wrap;html=1;" vertex="1" parent="1">
          <mxGeometry x="360" y="505" width="120" height="80" as="geometry" />
        </mxCell>
      </root>
    </mxGraphModel>
  </diagram>
</mxfile>
